<svg class="main-svg" xmlns="http://www.w3.org/2000/svg" xmlns:xlink="http://www.w3.org/1999/xlink" width="500" height="500" style="" viewBox="200 25 300 400">
<rect x="0" y="0" width="700" height="500" style="fill: rgb(255, 255, 255); fill-opacity: 1;"/><defs id="defs-1f45af"><g class="clips"/><g class="gradients"/><g class="patterns"/></defs><g class="bglayer"/><g class="layer-below"><g class="imagelayer"/><g class="shapelayer"/></g><g class="cartesianlayer"/><g class="polarlayer"/><g class="smithlayer"/><g class="ternarylayer"/><g class="geolayer"/><g class="funnelarealayer"/><g class="pielayer"/><g class="iciclelayer"/><g class="treemaplayer"/><g class="sunburstlayer"><g class="trace sunburst" stroke-linejoin="round" style="opacity: 1;"><g class="slice cursor-pointer"><path class="surface" d="M350,240L440,240A90,90 0,1,0 268.91280188878227,279.0495365205802L350,240A0,0 0,1,1 350,240Z" style="pointer-events: none; stroke-width: 1; fill: rgb(239, 85, 59); fill-opacity: 1; stroke: rgb(255, 255, 255); stroke-opacity: 1;"/><g class="slicetext"><text data-notex="1" class="slicetext" text-anchor="middle" x="0" y="0" style="font-family: 'Open Sans', verdana, arial, sans-serif; font-size: 12px; fill: rgb(68, 68, 68); fill-opacity: 1; white-space: pre;" transform="translate(344.45767790733277,213.47052072142478)rotate(-12.85714285714289)">Visual</text></g></g><g class="slice cursor-pointer"><path class="surface" d="M350,240L268.91280188878227,279.0495365205802A90,90 0,0,0 440,240.00000000000003L350,240A0,0 0,0,1 350,240Z" style="pointer-events: none; stroke-width: 1; fill: rgb(99, 110, 250); fill-opacity: 1; stroke: rgb(255, 255, 255); stroke-opacity: 1;"/><g class="slicetext"><text data-notex="1" class="slicetext" text-anchor="middle" x="0" y="0" style="font-family: 'Open Sans', verdana, arial, sans-serif; font-size: 12px; fill: rgb(255, 255, 255); fill-opacity: 1; white-space: pre;" transform="translate(360.64056459101,288.928716387642)">Textual/API</text></g></g><g class="slice"><path class="surface" d="M440,240L530,240A180,180 0,0,0 433.8701850240485,80.7335814930471L391.93509251202426,160.36679074652355A90,90 0,0,1 440,240Z" style="pointer-events: none; stroke-width: 1; fill: rgb(239, 85, 59); fill-opacity: 1; stroke: rgb(255, 255, 255); stroke-opacity: 1; opacity: 0.7;"/><g class="slicetext"><text data-notex="1" class="slicetext" text-anchor="middle" x="0" y="0" style="font-family: 'Open Sans', verdana, arial, sans-serif; font-size: 12px; fill: rgb(68, 68, 68); fill-opacity: 1; white-space: pre;" transform="translate(465.5786663569123,166.93449338814077)"><tspan class="line" dy="0em" x="0" y="0">Place Info</tspan><tspan class="line" dy="1.3em" x="0" y="0">17.29%</tspan></text></g></g><g class="slice"><path class="surface" d="M391.93509251202426,160.36679074652355L433.8701850240485,80.7335814930471A180,180 0,0,0 291.31286993857856,69.83590048087757L320.65643496928925,154.91795024043878A90,90 0,0,1 391.93509251202426,160.36679074652355Z" style="pointer-events: none; stroke-width: 1; fill: rgb(239, 85, 59); fill-opacity: 1; stroke: rgb(255, 255, 255); stroke-opacity: 1; opacity: 0.7;"/><g class="slicetext"><text data-notex="1" class="slicetext" text-anchor="middle" x="0" y="0" style="font-family: 'Open Sans', verdana, arial, sans-serif; font-size: 12px; fill: rgb(68, 68, 68); fill-opacity: 1; white-space: pre;" transform="translate(360.25088357784955,102.08804297225512)"><tspan class="line" dy="0em" x="0" y="0">Nearby</tspan><tspan class="line" dy="1.3em" x="0" y="0">13.00%</tspan></text></g></g><g class="slice"><path class="surface" d="M320.65643496928925,154.91795024043878L291.31286993857856,69.83590048087757A180,180 0,0,0 187.8256037775646,161.90092695883945L268.91280188878227,200.95046347941974A90,90 0,0,1 320.65643496928925,154.91795024043878Z" style="pointer-events: none; stroke-width: 1; fill: rgb(239, 85, 59); fill-opacity: 1; stroke: rgb(255, 255, 255); stroke-opacity: 1; opacity: 0.7;"/><g class="slicetext"><text data-notex="1" class="slicetext" text-anchor="middle" x="0" y="0" style="font-family: 'Open Sans', verdana, arial, sans-serif; font-size: 12px; fill: rgb(68, 68, 68); fill-opacity: 1; white-space: pre;" transform="translate(260.26932258528757,135.83201129139977)"><tspan class="line" dy="0em" x="0" y="0">Counting</tspan><tspan class="line" dy="1.3em" x="0" y="0">12.57%</tspan></text></g></g><g class="slice"><path class="surface" d="M268.91280188878227,200.95046347941974L187.8256037775646,161.90092695883945A180,180 0,0,0 176.4866850747464,287.8866322020014L263.2433425373732,263.94331610100073A90,90 0,0,1 268.91280188878227,200.95046347941974Z" style="pointer-events: none; stroke-width: 1; fill: rgb(239, 85, 59); fill-opacity: 1; stroke: rgb(255, 255, 255); stroke-opacity: 1; opacity: 0.7;"/><g class="slicetext"><text data-notex="1" class="slicetext" text-anchor="middle" x="0" y="0" style="font-family: 'Open Sans', verdana, arial, sans-serif; font-size: 12px; fill: rgb(68, 68, 68); fill-opacity: 1; white-space: pre;" transform="translate(215.50440781064273,224.59400579803642)"><tspan class="line" dy="0em" x="0" y="0">Routing</tspan><tspan class="line" dy="1.3em" x="0" y="0">11.43%</tspan></text></g></g><g class="slice"><path class="surface" d="M263.2433425373732,263.94331610100073L176.4866850747464,287.8866322020014A180,180 0,0,0 187.8256037775645,318.09907304116035L268.91280188878227,279.0495365205802A90,90 0,0,1 263.2433425373732,263.94331610100073Z" style="pointer-events: none; stroke-width: 1; fill: rgb(239, 85, 59); fill-opacity: 1; stroke: rgb(255, 255, 255); stroke-opacity: 1; opacity: 0.7;"/><g class="slicetext"><text data-notex="1" class="slicetext" text-anchor="middle" x="0" y="0" style="font-family: 'Open Sans', verdana, arial, sans-serif; font-size: 12px; fill: rgb(68, 68, 68); fill-opacity: 1; white-space: pre;" transform="translate(208.89587984564437,290.5482064364416)scale(0.682497779985749)rotate(-20.571428571428555)"><tspan class="line" dy="0em" x="0" y="0">Unanswerable</tspan><tspan class="line" dy="1.3em" x="0" y="0">2.86%</tspan></text></g></g><g class="slice"><path class="surface" d="M268.91280188878227,279.0495365205802L187.8256037775645,318.09907304116035A180,180 0,0,0 283.7375805167579,407.35976745988523L316.8687902583789,323.6798837299426A90,90 0,0,1 268.91280188878227,279.0495365205802Z" style="pointer-events: none; stroke-width: 1; fill: rgb(99, 110, 250); fill-opacity: 1; stroke: rgb(255, 255, 255); stroke-opacity: 1; opacity: 0.7;"/><g class="slicetext"><text data-notex="1" class="slicetext" text-anchor="middle" x="0" y="0" style="font-family: 'Open Sans', verdana, arial, sans-serif; font-size: 12px; fill: rgb(255, 255, 255); fill-opacity: 1; white-space: pre;" transform="translate(257.98967389684,335.51983714463495)"><tspan class="line" dy="0em" x="0" y="0">Nearby</tspan><tspan class="line" dy="1.3em" x="0" y="0">11.86%</tspan></text></g></g><g class="slice"><path class="surface" d="M316.8687902583789,323.6798837299426L283.7375805167579,407.35976745988523A180,180 0,0,0 390.05376811213654,415.48702419272826L370.0268840560683,327.74351209636416A90,90 0,0,1 316.8687902583789,323.6798837299426Z" style="pointer-events: none; stroke-width: 1; fill: rgb(99, 110, 250); fill-opacity: 1; stroke: rgb(255, 255, 255); stroke-opacity: 1; opacity: 0.7;"/><g class="slicetext"><text data-notex="1" class="slicetext" text-anchor="middle" x="0" y="0" style="font-family: 'Open Sans', verdana, arial, sans-serif; font-size: 12px; fill: rgb(255, 255, 255); fill-opacity: 1; white-space: pre;" transform="translate(339.3760790950667,375.1604587161636)"><tspan class="line" dy="0em" x="0" y="0">Trip</tspan><tspan class="line" dy="1.3em" x="0" y="0">9.57%</tspan></text></g></g><g class="slice"><path class="surface" d="M370.0268840560683,327.74351209636416L390.05376811213654,415.48702419272826A180,180 0,0,0 481.214352935854,363.218479067164L415.607176467927,301.609239533582A90,90 0,0,1 370.0268840560683,327.74351209636416Z" style="pointer-events: none; stroke-width: 1; fill: rgb(99, 110, 250); fill-opacity: 1; stroke: rgb(255, 255, 255); stroke-opacity: 1; opacity: 0.7;"/><g class="slicetext"><text data-notex="1" class="slicetext" text-anchor="middle" x="0" y="0" style="font-family: 'Open Sans', verdana, arial, sans-serif; font-size: 12px; fill: rgb(255, 255, 255); fill-opacity: 1; white-space: pre;" transform="translate(419.3037798781122,357.56672931494603)"><tspan class="line" dy="0em" x="0" y="0">Routing</tspan><tspan class="line" dy="1.3em" x="0" y="0">9.43%</tspan></text></g></g><g class="slice"><path class="surface" d="M415.607176467927,301.609239533582L481.214352935854,363.218479067164A180,180 0,0,0 527.1073259477533,272.1402410637546L438.55366297387667,256.0701205318773A90,90 0,0,1 415.607176467927,301.609239533582Z" style="pointer-events: none; stroke-width: 1; fill: rgb(99, 110, 250); fill-opacity: 1; stroke: rgb(255, 255, 255); stroke-opacity: 1; opacity: 0.7;"/><g class="slicetext"><text data-notex="1" class="slicetext" text-anchor="middle" x="0" y="0" style="font-family: 'Open Sans', verdana, arial, sans-serif; font-size: 12px; fill: rgb(255, 255, 255); fill-opacity: 1; white-space: pre;" transform="translate(475.26030587053657,299.812122429542)"><tspan class="line" dy="0em" x="0" y="0">Place Info</tspan><tspan class="line" dy="1.3em" x="0" y="0">9.14%</tspan></text></g></g><g class="slice"><path class="surface" d="M438.55366297387667,256.0701205318773L527.1073259477533,272.1402410637546A180,180 0,0,0 530,240.00000000000006L440,240.00000000000003A90,90 0,0,1 438.55366297387667,256.0701205318773Z" style="pointer-events: none; stroke-width: 1; fill: rgb(99, 110, 250); fill-opacity: 1; stroke: rgb(255, 255, 255); stroke-opacity: 1; opacity: 0.7;"/><g class="slicetext"><text data-notex="1" class="slicetext" text-anchor="middle" x="0" y="0" style="font-family: 'Open Sans', verdana, arial, sans-serif; font-size: 12px; fill: rgb(255, 255, 255); fill-opacity: 1; white-space: pre;" transform="translate(499.46681670936806,251.187698657191)scale(0.682497779985749)rotate(5.142857142857167)"><tspan class="line" dy="0em" x="0" y="0">Unanswerable</tspan><tspan class="line" dy="1.3em" x="0" y="0">2.86%</tspan></text></g></g></g></g><g class="glimages"/><defs id="topdefs-1f45af"><g class="clips"/></defs><g class="layer-above"><g class="imagelayer"/><g class="shapelayer"/></g><g class="infolayer"><g class="g-gtitle"/></g></svg>